<svg width="6" height="6" viewBox="0 0 6 6" fill="none" xmlns="http://www.w3.org/2000/svg">
<g id="person_24px">
<path id="icon/social/person_24px" fill-rule="evenodd" clip-rule="evenodd" d="M2.88438 0.994644C2.35317 0.994644 1.92292 1.43974 1.92292 1.98926C1.92292 2.53879 2.35317 2.98388 2.88438 2.98388C3.41559 2.98388 3.84585 2.53879 3.84585 1.98926C3.84585 1.43974 3.41559 0.994644 2.88438 0.994644ZM3.36509 1.98929C3.36509 1.71577 3.14876 1.49198 2.88435 1.49198C2.61995 1.49198 2.40362 1.71577 2.40362 1.98929C2.40362 2.26281 2.61995 2.4866 2.88435 2.4866C3.14876 2.4866 3.36509 2.26281 3.36509 1.98929ZM4.32655 4.4758C4.27848 4.29926 3.53335 3.9785 2.88436 3.9785C2.23777 3.9785 1.49744 4.29677 1.44216 4.4758H4.32655ZM0.961456 4.47581C0.961456 3.81438 2.24261 3.48119 2.88439 3.48119C3.52616 3.48119 4.80732 3.81438 4.80732 4.47581V4.97311H0.961456V4.47581Z" fill="black" fill-opacity="0.44"/>
</g>
</svg>
